<?xml version="1.0" encoding="iso-8859-1"?>
<!-- Generator: Adobe Illustrator 16.0.0, SVG Export Plug-In . SVG Version: 6.00 Build 0)  -->
<!DOCTYPE svg PUBLIC "-//W3C//DTD SVG 1.1//EN" "http://www.w3.org/Graphics/SVG/1.1/DTD/svg11.dtd">
<svg version="1.1" id="Capa_1" xmlns="http://www.w3.org/2000/svg" xmlns:xlink="http://www.w3.org/1999/xlink" x="0px" y="0px"
	 width="108.364px" height="108.364px" viewBox="0 0 108.364 108.364" style="enable-background:new 0 0 108.364 108.364;"
	 xml:space="preserve">
<g>
	<g>
		<path d="M54.182,0C24.258,0,0,24.258,0,54.182c0,29.924,24.258,54.183,54.182,54.183c29.923,0,54.182-24.259,54.182-54.183
			C108.364,24.258,84.105,0,54.182,0z M62.238,38.049c-1.232-1.233-1.297-3.229-0.143-4.544c0.024-0.035,0.078-0.097,0.137-0.157
			c1.277-1.278,3.459-1.27,4.718-0.011l1.76,1.759l1.761-1.76c1.197-1.199,3.267-1.262,4.543-0.145
			c0.041,0.03,0.106,0.086,0.168,0.146c0.629,0.629,0.976,1.465,0.977,2.354c0,0.89-0.346,1.727-0.977,2.356l-1.76,1.76l1.758,1.759
			c0.631,0.629,0.978,1.466,0.978,2.355c0,0.89-0.347,1.727-0.976,2.357c-1.258,1.26-3.453,1.261-4.713,0l-1.758-1.758l-1.758,1.758
			c-0.631,0.63-1.467,0.977-2.355,0.977c-0.891,0-1.728-0.347-2.356-0.977c-1.298-1.298-1.298-3.412,0-4.711L64,39.808
			L62.238,38.049z M34.121,38.063c-1.233-1.233-1.296-3.229-0.143-4.544c0.025-0.035,0.078-0.097,0.137-0.157
			c1.277-1.278,3.46-1.27,4.718-0.011l1.76,1.759l1.76-1.76c1.198-1.199,3.267-1.262,4.544-0.145
			c0.041,0.03,0.106,0.086,0.167,0.146c0.629,0.629,0.976,1.465,0.977,2.354c0,0.89-0.346,1.727-0.976,2.356l-1.76,1.76l1.758,1.759
			c0.63,0.629,0.977,1.466,0.977,2.355c0,0.89-0.346,1.727-0.976,2.357c-1.258,1.26-3.452,1.261-4.712,0l-1.758-1.758l-1.758,1.758
			c-0.631,0.63-1.467,0.977-2.356,0.977c-0.89,0-1.727-0.347-2.356-0.977c-1.298-1.298-1.298-3.412,0-4.711l1.759-1.759
			L34.121,38.063z M79.034,74.838c0,0.551-0.448,1-1,1c-1.666,0-4.097-0.934-5.688-2.402c-1.492,1.521-3.561,2.402-5.738,2.402
			c-2.164,0-4.223-0.871-5.713-2.375c-1.489,1.504-3.547,2.375-5.713,2.375c-2.163,0-4.222-0.871-5.713-2.375
			c-1.488,1.504-3.546,2.375-5.712,2.375c-2.176,0-4.244-0.881-5.735-2.402c-1.592,1.469-4.024,2.402-5.691,2.402
			c-0.552,0-1-0.449-1-1v-4.105c0-0.551,0.448-1,1-1c1.268,0,3.809-0.975,4.904-2.504c0.188-0.262,0.491-0.416,0.813-0.416
			c0,0,0,0,0.001,0c0.323,0,0.625,0.156,0.813,0.418c1.119,1.568,2.949,2.504,4.895,2.504c1.949,0,3.779-0.936,4.896-2.502
			c0.188-0.264,0.49-0.42,0.813-0.42c0,0,0,0,0.001,0c0.322,0,0.625,0.156,0.813,0.418c1.124,1.568,2.957,2.504,4.902,2.504
			c1.947,0,3.778-0.936,4.899-2.504c0.375-0.524,1.251-0.524,1.627,0c1.121,1.568,2.952,2.504,4.897,2.504
			c1.949,0,3.779-0.936,4.9-2.504c0.188-0.262,0.49-0.418,0.813-0.418l0,0c0.321,0,0.625,0.156,0.813,0.418
			c1.094,1.529,3.633,2.504,4.899,2.504c0.552,0,1,0.447,1,1v4.104H79.034z"/>
	</g>
</g>
<g>
</g>
<g>
</g>
<g>
</g>
<g>
</g>
<g>
</g>
<g>
</g>
<g>
</g>
<g>
</g>
<g>
</g>
<g>
</g>
<g>
</g>
<g>
</g>
<g>
</g>
<g>
</g>
<g>
</g>
</svg>
