<svg height="512" viewBox="0 0 512 512" width="512" xmlns="http://www.w3.org/2000/svg"><g id="Bag"><path d="m96 144h400v320h-400z" fill="#ffda44"/><path d="m368 144h128v320h-128z" fill="#cca400"/><path d="m376 456 56-56 56 56" fill="#aa6100"/><path d="m16 296h216v168h-216z" fill="#78b9eb"/><path d="m152 296h80v168h-80z" fill="#1a6fb0"/><path d="m496 136h-88v-24a71.948 71.948 0 0 0 -124-49.722 71.948 71.948 0 0 0 -124 49.722v24h-64a8 8 0 0 0 -8 8v72h-16a40.045 40.045 0 0 0 -40 40v32h-16a8 8 0 0 0 -8 8v168a8 8 0 0 0 8 8h480a8 8 0 0 0 8-8v-320a8 8 0 0 0 -8-8zm-8 308.687-50.343-50.344a8 8 0 0 0 -11.314 0l-50.343 50.344v-292.687h112zm-11.313 11.313h-89.373l44.686-44.686zm-140.687-400a56.064 56.064 0 0 1 56 56v24h-88v-24a71.544 71.544 0 0 0 -10.151-36.807 55.87 55.87 0 0 1 42.151-19.193zm-52 35.255a55.677 55.677 0 0 1 4 20.745v24h-8v-24a55.677 55.677 0 0 1 4-20.745zm-108 20.745a55.963 55.963 0 0 1 98.151-36.807 71.544 71.544 0 0 0 -10.151 36.807v24h-88zm0 176h-40v-32a39.794 39.794 0 0 0 -8.021-24h24.021a24.027 24.027 0 0 1 24 24zm-56-32v32h-16v-32a23.941 23.941 0 0 1 8-17.869 23.941 23.941 0 0 1 8 17.869zm-72 0a24.027 24.027 0 0 1 24-24h24.021a39.794 39.794 0 0 0 -8.021 24v32h-40zm-24 200v-152h120v152zm184 0h-48v-152h64v152zm32 0v-160a8 8 0 0 0 -8-8h-40v-32a40.045 40.045 0 0 0 -40-40h-24a39.759 39.759 0 0 0 -16 3.35 39.638 39.638 0 0 0 -8-2.545v-64.805h56v24a8 8 0 0 0 16 0v-24h112v24a8 8 0 0 0 16 0v-24h56v304z"/><path d="m432 352a8 8 0 0 0 8-8v-176a8 8 0 0 0 -16 0v176a8 8 0 0 0 8 8z"/><path d="m432 384a8 8 0 0 0 8-8v-8a8 8 0 0 0 -16 0v8a8 8 0 0 0 8 8z"/><path d="m192 312a8 8 0 0 0 -8 8v64a8 8 0 0 0 16 0v-64a8 8 0 0 0 -8-8z"/><path d="m192 400a8 8 0 0 0 -8 8v8a8 8 0 0 0 16 0v-8a8 8 0 0 0 -8-8z"/></g></svg>