<?xml version="1.0" encoding="utf-8"?>
<!-- Generator: Adobe Illustrator 24.0.1, SVG Export Plug-In . SVG Version: 6.00 Build 0)  -->
<svg version="1.1" id="Capa_1" xmlns="http://www.w3.org/2000/svg" xmlns:xlink="http://www.w3.org/1999/xlink" x="0px" y="0px"
	 viewBox="0 0 512 512" style="enable-background:new 0 0 512 512;" xml:space="preserve">
<style type="text/css">
	.st0{fill:#E25674;}
	.st1{fill:#D7E3FF;}
	.st2{fill:#B5BFF7;}
	.st3{fill:#F272B0;}
</style>
<path class="st0" d="M158.8,272.8c3.7-5.9,10.1-9.4,17.1-9.4l26.9,0.2l2.1-246.5C205,7.5,213-0.4,222.7-0.3l67.5,0.6
	c9.7,0.1,17.6,8.1,17.5,17.8l-2.1,246.4l26.9,0.2c7,0.1,13.4,3.7,17,9.7c3.4,5.6,3.8,12.3,1.2,18.2l-68.1,199.9l-0.5,1
	c-5.9,11.3-17.3,18.3-30,18.4c-0.2,0-0.4,0-0.6,0l-0.1,0c-13-0.2-24.5-7.5-30.2-19.1l-0.5-1l-0.3-1.1L157.1,291
	C154.7,285,155.3,278.3,158.8,272.8z"/>
<g>
	<path class="st1" d="M148.4,87.2l-25.6-18.3c-6.7-4.8-16.1-3.3-21,3.5c-4.8,6.7-3.3,16.1,3.5,21l25.6,18.3c2.7,1.9,5.7,2.8,8.7,2.8
		c4.7,0,9.3-2.2,12.2-6.3C156.7,101.5,155.1,92.1,148.4,87.2z"/>
	<path class="st1" d="M123.2,181.8l-58.6-19.6c-7.9-2.6-16.4,1.6-19,9.5c-2.6,7.9,1.6,16.4,9.5,19l58.6,19.6
		c1.6,0.5,3.2,0.8,4.8,0.8c6.3,0,12.1-4,14.2-10.3C135.3,193,131,184.5,123.2,181.8z"/>
	<path class="st1" d="M119.8,298.5c0-8.3-6.7-15-15-15H38.2c-8.3,0-15,6.7-15,15s6.7,15,15,15h66.6
		C113,313.5,119.8,306.8,119.8,298.5z"/>
	<path class="st1" d="M104,406.9l-37.1,11.7c-7.9,2.5-12.3,10.9-9.8,18.9c2,6.4,7.9,10.5,14.3,10.5c1.5,0,3-0.2,4.5-0.7l37.1-11.7
		c7.9-2.5,12.3-10.9,9.8-18.9C120.4,408.7,112,404.3,104,406.9z"/>
</g>
<g>
	<path class="st2" d="M406.7,93.3c6.7-4.8,8.3-14.2,3.5-21c-4.8-6.7-14.2-8.3-21-3.5l-25.6,18.3c-6.7,4.8-8.3,14.2-3.5,21
		c2.9,4.1,7.5,6.3,12.2,6.3c3,0,6.1-0.9,8.7-2.8L406.7,93.3z"/>
	<path class="st2" d="M398.4,210.3l58.6-19.6c7.9-2.6,12.1-11.2,9.5-19c-2.6-7.9-11.2-12.1-19-9.5l-58.6,19.6
		c-7.9,2.6-12.1,11.2-9.5,19c2.1,6.3,8,10.3,14.2,10.3C395.2,211.1,396.8,210.8,398.4,210.3z"/>
	<path class="st2" d="M473.8,283.4h-66.6c-8.3,0-15,6.7-15,15s6.7,15,15,15h66.6c8.3,0,15-6.7,15-15S482.1,283.4,473.8,283.4z"/>
	<path class="st2" d="M445.1,418.6L408,406.8c-7.9-2.5-16.4,1.9-18.9,9.8c-2.5,7.9,1.9,16.4,9.8,18.9l37.1,11.7
		c1.5,0.5,3,0.7,4.5,0.7c6.4,0,12.3-4.1,14.3-10.5C457.4,429.5,453,421.1,445.1,418.6z"/>
</g>
<path class="st3" d="M157.9,273c3.8-5.9,10.2-9.4,17.2-9.3l26.9,0.4l3.6-246.4c0.1-9.7,8.2-17.5,17.9-17.4l33.7,0.5l-7.5,511.9
	c-0.2,0-0.4,0-0.6,0l-0.1,0c-13-0.2-24.5-7.6-30.1-19.3l-0.5-1l-0.3-1.1l-62-200.2C153.8,285.1,154.5,278.4,157.9,273z"/>
</svg>
